<?xml version="1.0" encoding="utf-8"?>
<!-- Generator: Adobe Illustrator 21.1.0, SVG Export Plug-In . SVG Version: 6.00 Build 0)  -->
<svg version="1.1" id="Layer_1" xmlns="http://www.w3.org/2000/svg" xmlns:xlink="http://www.w3.org/1999/xlink" x="0px" y="0px"
	 viewBox="0 0 788.9 297.2" style="enable-background:new 0 0 788.9 297.2;" xml:space="preserve">
<style type="text/css">
	.st0{fill:#FFFFFF;}
	.st1{fill-rule:evenodd;clip-rule:evenodd;fill:#FFFFFF;}
	.st2{fill-rule:evenodd;clip-rule:evenodd;fill:#FF0000;}
</style>
<path class="st0" d="M118.4,222.5l-0.2,0.6c-0.7,2.6-1.9,4.4-3.6,5.6c-1.7,1.1-4.2,1.7-7.5,1.7l-2.3,0c-3.6,0-5.9-0.6-7-1.8
	c-1.1-1.2-1.3-3.3-0.5-6.3l1.1-4.1c0.8-3,2.1-5.1,3.8-6.3s4.4-1.8,8-1.8l1.9,0c3.5,0,5.9,0.5,7,1.5c1.1,1,1.3,2.9,0.6,5.5l-0.1,0.4
	l-6.7,0l0.1-0.4c0.2-0.9,0.1-1.5-0.3-1.9c-0.4-0.4-1.3-0.6-2.6-0.5c-1.5,0-2.5,0.2-3.1,0.7c-0.6,0.4-1.1,1.5-1.6,3.2l-0.9,3.2
	c-0.4,1.7-0.5,2.7-0.1,3.2c0.4,0.4,1.3,0.6,2.7,0.6c1.4,0,2.4-0.2,3-0.6c0.6-0.4,1.1-1.1,1.3-2.1l0.1-0.5L118.4,222.5L118.4,222.5z
	 M129.6,218.6l-0.9,3.2c-0.4,1.7-0.5,2.7-0.1,3.2c0.4,0.4,1.3,0.6,2.9,0.6h1.3c1.5,0,2.6-0.2,3.2-0.7c0.6-0.4,1.1-1.5,1.6-3.2
	l0.9-3.2c0.4-1.7,0.5-2.7,0.1-3.2c-0.4-0.4-1.3-0.7-2.9-0.7l-1.3,0c-1.5,0-2.6,0.2-3.2,0.7C130.6,215.9,130.1,216.9,129.6,218.6
	L129.6,218.6z M122.9,218.2c0.8-3,2.1-5.1,3.8-6.3c1.7-1.2,4.4-1.8,8-1.8l3.3,0c3.6,0,5.9,0.6,7,1.8c1.1,1.2,1.3,3.3,0.5,6.2
	l-1.1,4.1c-0.8,3-2.1,5.1-3.8,6.3c-1.8,1.2-4.4,1.8-8,1.8l-3.3,0c-3.6,0-5.9-0.6-7-1.8c-1.1-1.2-1.3-3.3-0.5-6.3L122.9,218.2
	L122.9,218.2z M172,210.3l9.9,0l-5.2,19.7l-6.6,0l3.8-14.4l-8.9,14.5l-6.8,0l-1.2-14.6l-3.9,14.6l-6.6,0l5.2-19.7l9.9,0l1.4,14.2
	L172,210.3L172,210.3z M181.8,229.9l5.2-19.7l11.8,0c3.3,0,5.6,0.5,6.7,1.5c1.2,1,1.4,2.7,0.8,5L206,218c-0.6,2.3-1.8,4-3.5,5
	c-1.7,1-4.2,1.5-7.5,1.5l-5.1,0l-1.4,5.2L181.8,229.9L181.8,229.9z M191.1,220.3l4.7,0c1.1,0,1.9-0.2,2.3-0.5c0.4-0.3,0.8-0.9,1-1.9
	l0.3-1.1c0.2-0.8,0.1-1.3-0.2-1.7c-0.4-0.3-1.1-0.5-2.2-0.5l-4.4,0L191.1,220.3L191.1,220.3z M214.5,222.4l5.5,0l-0.3-8.1l-0.4,0
	L214.5,222.4L214.5,222.4z M202.9,229.8l12.5-19.7l10.4,0l1.9,19.6l-7.2,0l-0.2-3.4l-7.9,0l-2.1,3.4L202.9,229.8L202.9,229.8z
	 M230.8,229.8l5.2-19.7l10,0l4,14.6l3.9-14.6l6.4,0l-5.2,19.7l-10,0l-3.9-14.7l-3.9,14.7L230.8,229.8L230.8,229.8z M255.1,204.2
	c-0.6,1.1-1.2,1.9-1.9,2.4c-0.7,0.5-1.5,0.8-2.4,0.8c-0.2,0-0.4,0-0.6,0c-0.2,0-0.4-0.1-0.6-0.1l-1.4-0.3c-0.2,0-0.4-0.1-0.6-0.1
	c-0.2,0-0.3,0-0.5,0c-0.4,0-0.7,0.1-1,0.2c-0.3,0.2-0.5,0.4-0.8,0.8l-1.9,0c0.6-1.1,1.2-1.9,1.9-2.4c0.7-0.5,1.5-0.8,2.4-0.8
	c0.3,0,0.5,0,0.8,0c0.2,0,0.4,0.1,0.7,0.1l1.5,0.4c0.1,0,0.3,0.1,0.4,0.1c0.2,0,0.3,0,0.5,0c0.4,0,0.7-0.1,1-0.3
	c0.3-0.2,0.6-0.5,0.8-0.9H255.1L255.1,204.2z M260.4,229.7l5.2-19.7l6.8,0l-5.2,19.7L260.4,229.7L260.4,229.7z M282.2,222.2l5.5,0
	l-0.3-8.1H287L282.2,222.2L282.2,222.2z M270.7,229.7l12.5-19.7l10.4,0l1.9,19.6l-7.2,0l-0.2-3.4l-7.9,0l-2.1,3.4L270.7,229.7
	L270.7,229.7z M336,216l-6.7,0c0.1-0.6,0-1.1-0.5-1.3c-0.5-0.3-1.3-0.4-2.6-0.4l-1.7,0c-1.5,0-2.6,0.2-3.2,0.7
	c-0.6,0.4-1.1,1.5-1.6,3.2l-0.9,3.2c-0.4,1.7-0.5,2.7-0.1,3.2c0.4,0.4,1.3,0.7,2.9,0.7l1.9,0c1.3,0,2.3-0.1,2.9-0.4
	c0.6-0.3,1-0.8,1.2-1.5l0.2-0.8l-3.9,0l1-3.7l10.4,0l-0.9,3.4c-0.7,2.7-2,4.6-3.8,5.8c-1.8,1.2-4.3,1.8-7.6,1.8l-4.6,0
	c-2.8,0-4.8-0.7-5.9-2.1c-1.1-1.4-1.3-3.5-0.5-6.2l0.8-3c0.8-3.1,2.2-5.3,4.1-6.7c1.9-1.4,4.5-2.1,7.9-2.1l3.7,0
	c2.7,0,4.8,0.5,6.2,1.6c1.5,1.1,2,2.4,1.5,4L336,216L336,216z M336.7,229.5l5.2-19.7l18.9,0l-1.2,4.4l-12.2,0l-0.9,3.4l11.8,0
	l-1,3.8l-11.8,0l-1,3.7l12.4,0l-1.2,4.4L336.7,229.5L336.7,229.5z M360.5,229.4l5.2-19.7l10,0l4,14.6l3.9-14.6l6.4,0l-5.2,19.7
	l-10,0l-3.9-14.7l-3.9,14.7L360.5,229.4L360.5,229.4z M389.9,229.4l5.2-19.7l18.9,0l-1.2,4.4l-12.2,0l-0.9,3.4l11.8,0l-1,3.8
	l-11.8,0l-1,3.7l12.4,0l-1.2,4.4L389.9,229.4L389.9,229.4z M423.2,219.1l3.8,0c1.1,0,1.9-0.2,2.4-0.5c0.5-0.3,0.8-0.9,1.1-1.7
	l0.2-0.7c0.2-0.8,0.2-1.4-0.2-1.7c-0.3-0.3-1.1-0.5-2.2-0.5l-3.8,0L423.2,219.1L423.2,219.1z M413.7,229.3l5.2-19.7l10.2,0
	c3.9,0,6.4,0.4,7.7,1.2c1.2,0.8,1.6,2.2,1.1,4.2l-0.4,1.6c-0.4,1.3-1,2.4-2.1,3.1c-1,0.7-2.4,1.2-4,1.4c1.6,0.2,2.8,0.7,3.4,1.3
	c0.6,0.7,0.7,1.6,0.4,2.8l-1.1,4.1l-6.9,0l0.9-3.5c0.2-0.8,0.2-1.4-0.2-1.7c-0.3-0.3-1.1-0.5-2.2-0.5l-3.7,0l-1.5,5.7L413.7,229.3
	L413.7,229.3z M448.2,221.8l5.5,0l-0.3-8.1l-0.4,0L448.2,221.8L448.2,221.8z M436.6,229.2l12.5-19.7l10.4,0l1.9,19.6l-7.2,0
	l-0.2-3.4l-7.9,0l-2.1,3.4L436.6,229.2L436.6,229.2z M464.6,229.2l5.2-19.7l6.8,0l-4,15.1l11.3,0l-1.2,4.6L464.6,229.2L464.6,229.2z
	 M497.8,229.1l5.2-19.7l12.8,0c3.6,0,5.9,0.6,7,1.7c1.1,1.2,1.3,3.2,0.5,6.1l-1.1,4c-0.8,2.9-2,4.9-3.8,6.1
	c-1.7,1.2-4.4,1.8-7.9,1.8L497.8,229.1L497.8,229.1z M505.7,224.7l5,0c1.5,0,2.6-0.2,3.2-0.7c0.6-0.4,1.1-1.5,1.6-3.2l0.9-3.2
	c0.4-1.7,0.5-2.7,0.1-3.2c-0.4-0.4-1.3-0.7-2.9-0.7l-5,0L505.7,224.7L505.7,224.7z M524.6,229l5.2-19.7l18.9,0l-1.2,4.4l-12.2,0
	l-0.9,3.4l11.8,0l-1,3.8l-11.8,0l-1,3.7l12.4,0l-1.2,4.4L524.6,229L524.6,229z M570,218.8l3.8,0c1.1,0,1.9-0.2,2.4-0.5
	c0.5-0.3,0.8-0.9,1.1-1.7l0.2-0.7c0.2-0.8,0.2-1.4-0.2-1.7c-0.3-0.3-1.1-0.5-2.2-0.5l-3.8,0L570,218.8L570,218.8z M560.5,228.9
	l5.2-19.7l10.2,0c3.9,0,6.4,0.4,7.7,1.2c1.2,0.8,1.6,2.2,1.1,4.2l-0.4,1.6c-0.4,1.3-1,2.4-2.1,3.1c-1,0.7-2.4,1.2-4,1.4
	c1.6,0.2,2.8,0.7,3.4,1.3c0.6,0.7,0.7,1.6,0.4,2.8l-1.1,4.1l-6.9,0l0.9-3.5c0.2-0.8,0.2-1.4-0.2-1.7c-0.3-0.3-1.1-0.5-2.2-0.5
	l-3.7,0l-1.5,5.7L560.5,228.9L560.5,228.9z M595,221.4l5.5,0l-0.3-8.1h-0.4L595,221.4L595,221.4z M583.5,228.9l12.5-19.7l10.4,0
	l1.9,19.6l-7.2,0l-0.2-3.4l-7.9,0l-2.1,3.4L583.5,228.9L583.5,228.9z M611.4,228.8l5.2-19.7l6.8,0l-4,15.1l11.3,0l-1.2,4.6
	L611.4,228.8L611.4,228.8z M632.6,228.8l5.2-19.7l6.8,0l-4,15.1l11.3,0l-1.2,4.6L632.6,228.8L632.6,228.8z M650.6,209.1l7.6,0
	l2.5,7.6l6.4-7.6l7.5,0l-12,12.8l-1.8,6.9l-6.8,0l1.8-6.9L650.6,209.1L650.6,209.1z"/>
<path class="st1" d="M249.6,149.6l40.2-0.1l-4.7,17.6c-5.3,19.8-16.2,27.2-40.8,28.1c5.1-5.6,6-2.6,6.9-8.3c0.3-2,2-4.9,0.8-6.5
	c-1.4-2,1.3,1.3-0.4-0.6l-2.8-1.9c-1.5-1.2-0.5-0.3-1.4-3.7l1.6-2.8c-0.3-1.4-0.6-4.3,0-5.5c1-1.9,1.2-1.2,1.2-3.4
	c0-1-0.2-1.9-0.6-3.1c-1.1-3.5-0.7-2.9,0-6.4c0.3-1.5,0-2-0.1-3.4L249.6,149.6L249.6,149.6z M100.2,82.4L100.2,82.4
	c7-7.4,16.8-12.2,26.3-12.3l156.3-0.4c1.4,0,2.8,0.1,4.1,0.3c-1.8,2.9-2.4,3.1-1.8,4.5l1.5,4c1,2.3,2.5,0.4,3.4,3.4
	c0.9,2.9,1.6,6.6-0.5,9.2c-1.3-0.3-0.9-0.5-2.1-0.5c-0.4,1.8-0.4,0.1-0.1,1.7c0.7,4.6,4.9-1.6,5.2-1.9c2.7-2.3,1-1.2,2.4-3.6
	c3.1-5.3,2.9-0.8,2.7-7.1c2.8-1.6-2.5,1.1,0.9-0.3c1.4-0.6,1.4-1,1.8-1.6c3.8,5.1,5.2,12.2,3.1,20l-3.9,14.6l-13,0
	c1-1.3,0.3-1.1-0.7-3c-1-1.8,0.1-1.6-1.5-3.3c0.8-1.1,0.7-1.5,0.9-1.9c0.5-0.7,0.6-0.2,1.7-1.5c-1.1-1.5-1.5-2.5-2.4-4.1l-4,3.1
	c-1.9-1.8-0.6-1.6-2.7-1.2c-0.7-2,0.7-0.2-0.5-2.2c-0.1,0.1-0.1,0.2-0.1,0.3l-0.3,0.8c-0.2,0.4,0,0.2-0.5,0.5
	c-0.4-0.3-2.2-1.6-3.1-1.9c0.6-1.5,0.7-0.6,1.9-1.3c2.4-1.5,0.6-0.6,1.2-2.1l2.4-0.1c0.1,0,0.8-0.6,0.6,0c0,0.1,0.2,0,0.3,0
	c-1.4,1.1-1.2,0.5-2.8,1.8c0.1,0.3-0.1,0.3,0.2,1l1.3,1.2c0.6-1.1,0.2-0.2,0.3-1.2c0.1-0.8-0.4,0.2,0.1-0.7l2.3,0l0.2-1.3
	c1.7,1.9,0.6,1.3,2.3,0.9c0.6,1.7,0.5,1.1,2,2c1-1.6,0.9-1.6-0.3-3.2l0.8-1.9c-0.5-1,0-0.5-1.1-1.2c1.9-0.4,0,0.5,2-0.7
	c-2.6-2-3.9-1.3-6.4-1.7c-1.1-0.2-4.9-1.7-6-1.1c-0.2,0.1-0.3,0-0.4,0.1c2,3.8-2.2,6.5-4.5,8.7c-4.4,4.3-3.2,4.4-4.2,5.3
	c-1.3,1.3-2.9,2.1-4.7,4.6c-1.9,2.5-2.4,4.4-4.7,5.4l-8.6,0l-0.2-0.1l-0.3,0.1l-2.7,0c-0.3-0.5-0.5-0.8-1.4-1.7l0.7-1.7
	c0.2-0.9,0.2-0.2,0.2-1.1c0.6,0.5,1.5,1.7,2.3,1.6l0.7,0c0.1,0,0.4,0,0.5,0c0.8-0.1,0.3,0.1,1.1-0.3c-1.5-2.7-0.8-1.2-3.6-2.3
	c0.8-0.7,0.5-0.3,1.8-1.1l-4.6-3c-0.4-1.7,0.2-3.2-1.4-5.3c-1.5-2-3.1-0.9-3.9-4.9l1.6-4.6c0.6-1.9,0.4-2.9,1-4.7l2.7-6.9
	c0.5-1.4,0.4-1.2-0.1-2.5c-1.6,3.2-3.9,6.4-5.5,10.1c-3.2,7.4-2.6,4.8-7.7,6.9c-1.3-1-1.3-1.9-2.4-3.5c-1.1-1.5-0.8-2.2-1.6-3.8
	c-1.2,2-1.1,3.4,0,5.7c1,2.1,0.6,3.8,3,5l-0.6-1.9c1.6-0.7,2.7-0.5,4.1,0c0.5,1.3,0.3,1.6,0.5,2.7c0.7,3.1,3.2,2.3,0.6,8.1
	c-1.1,0.3-1.9,0.1-3.3,0.5c-1.4,0.4-2.1,0.3-3.2,0.6c-1.3,1.2-4.2,3.9-5.6,4.8c-4.3,2.5-4.1,3.3-5.7,2.3L217,101
	c1-4.5-1.9-8.2-6.4-8.2l-24.8,0.1c-4.5,0-9.1,3.7-10,8.3l-8.6,39.4c-0.4,0.3-1.1,0.6-2.3,0.9c-4.1,1-8.2,0.6-9,2.5
	c4.1-2,8.2-1.2,11-2l-5,22.9c-0.2,1-0.2,2-0.1,2.9c-0.9-0.2-1.3-0.9-3.1-1.6c-4.7-1.8-8.4,3.9-12.5,5.1c-3.2,1-10.3,0.6-10.8-3.3
	l-0.6-4.7c0-0.6,0,0,0-0.8c0-0.1,0.1-0.3,0-0.3c-0.1,0,0-0.2,0-0.3l-7.2-5.5c-3.8-2.9-3.4-2.5-4.4-6.5c-0.9-3.8-0.5-4,0.7-7.2
	c0.7-1.8-0.5-1.7-0.5-3.7c0-1.2,1.7-2.9,1-3.9c-0.1-0.1-0.1-0.2-0.2-0.3l-0.7-0.8c-3.5-3.7-2.5-3.2-7.5-7.6c-1.2-1-1.8-2-2.4-3.1
	c0.1,0.7,0.1,1.4,0.2,2.1c1.9,2.7,1.7,1.2,3.9,3.2l5.6,6.7c-0.1,1.6-1.1,2.6-1.1,4.6c0,0.7,0.3,1.8,0.3,2.2c0,1.2-0.2,0.6-0.9,2.2
	c-1.4,3.1,0.2,6.1,0.1,9.1c-1.9-0.1-1.7,0-3.2,0.2c-1.3,0.1-1.8,0-3.1,0.2c-0.9,0.1-1.5,0.3-2,0.4c0,0.5-0.1,0.9-0.2,1.4
	c9.9-1,6.8-3,13.6,3.5c-1.4,7.5-3.8,3.5-4.9,7.2c-0.4,1.3-0.9,3.1-1.4,4.5c-0.4,1-0.7,1.4-1.8,1.9c-0.1,0-0.2,0.1-0.3,0.1l-1.7,0.8
	c-1.4,0.5-1.3,0.1-2.5,0.2c-1.7,0.1-3,0.6-4.5,1c-0.2,0.9-0.4,1.7-0.7,2.6c1.1-0.4,1.7-0.3,3.2,3.3c0.7,1.5,0.4,4.8-0.3,6.1
	c-0.6,1.1-1.6,1.1-2.4,1.7c-1.2,0.9-1.8,2.1-2,3.4c1.1,0.9,2.4,1.4,3.8,1.7c-0.1-5.1,4.2-6.4,4.6-7c2.9-3.2-0.2-6.6,6.7-6.6
	c1.9,0,2.9,0.7,5,0.7c3.2,0.1,2.1,0.4,5,2c5.5,3.1,7.7,8.2,12.7,12.9l-28.1,0.1l0.3,0c-0.5-1.3-3.4-1.4-6.2-2.2L100.2,82.4
	L100.2,82.4z M112.3,112c0.1,0.5,0.2,0.9,0.2,1.4c4.2-3.4,6.8-2.2,9.7-4.5c1.3-1,3.7-2.8,3.5-4.4c-2.5,0.8-3.6,3.7-7.2,4.7
	C114.8,110.4,115.2,110.3,112.3,112L112.3,112z M117.1,195.7l-23.9,0.1c-15.4,0-24.7-12.6-20.6-28l5.7-21.6c2.4,1.9,4.4,3.7,5,4.4
	c1.9,2.2,1.1,3.3,2.9,5.4c2.9,3.6,9.7,13.4,13.7,14.2c-0.2-0.7,0.1-0.1-0.6-0.8c-1.5-1.5-0.6-0.1-2.2-2.7c-1-1.5-2.1-2.3-3.3-3.7
	c-1.2-1.4-6.5-9.6-7.1-11.3c-1.6-4.5-5.1-6-7.8-7.7l12.1-45.6c1.6-5.9,4.8-11.4,9.2-15.9L117.1,195.7L117.1,195.7z M287.8,70.2
	c4.6,0.9,8.5,3,11.3,6.1c-0.1,0.5-0.5,0.9-1.4,1.6c-1.1-1.4-0.1-0.5-0.9-2.5l-2.1,2.3c-1.2-1.3-3.1-2.8-3.9-3.9
	C289.5,72.1,289.3,71.7,287.8,70.2L287.8,70.2z M237.9,112.5l-20,0.1c2.7-1.8,6-4.6,7.8-6.4l3.3-0.3c1.4-0.4,1.7-0.5,3-0.4
	c1.4,1.1,3.8,3.9,4.7,5.4C237,111.5,237.4,112.1,237.9,112.5L237.9,112.5z M285.4,112.4l-25,0.1c0.3-0.1,2.7-0.7,3.3-1
	c9.5-3.4,6.4-3.1,8.6-6c3.2,0.8,7.5,4,10.6,5.6c1.1,0.6,0.7,0,1.8,0.7C285.3,112.2,285.4,112.3,285.4,112.4L285.4,112.4z
	 M117.5,195.7h-0.2h-0.1H117.5L117.5,195.7z M168.3,173l24.8-0.1c4.5,0,9.1-3.7,10-8.3l2-9c0,0,0.1,0.1,0.1,0.1
	c1.2,2,1.8,3.4,4.3,3.8c-3.7-4.4-0.8,0-4.1-5.4l1-4.5l33.1-0.1c0,0.1,0,0.3-0.1,0.4c-0.1,0.9,0,0.1-0.2,0.9l-0.1,0.6
	c0.7-0.6,1.1-1.3,1.3-1.9l7.7,0c0,1.1-0.2,2.4-1.4,4.8c-1.8,3.7-0.7,4-0.8,7.5c-0.1,2.7,0,1.4-1.1,3.8c-1.1,2.6,1,3.4-1.1,7.8
	c-0.8,1.6-0.2,1.9-0.5,3.6c4.6,4.3,3.4,2.9,2.7,8.2c-0.1,1-0.3,3.5-0.6,4.4c-0.8,2.2-2.1,2.1-3.6,3.5c-0.6,0.6-1.1,1.2-1.6,2
	c-0.2,0-0.5,0-0.7,0l-92.7,0.2c-5.1-4.4-8.1-10.1-11.5-12.5c-4.1-3-4.1-2.8-8-3.5c-3.7-0.7-2.1-1.7-7.9-0.6l-2.4-3.5
	c2.1-0.9,4-0.6,5.6-3.7c1-2.1,1-3.8,1.7-6.1c1.7-0.8,2.2-0.1,3.2-2.4c0.6-1.4,0.4-2.5,1.4-3.3c7.8,6.2,2,10.5,8.9,12.6
	c2.2,0.7,4.6,1.1,6.7,0.8c2-0.3,4.8-0.7,6.6-2.2l6.4-3.3c1-0.2,2.6,0.5,4.5,0.9C162.9,171.3,165.3,173,168.3,173L168.3,173z
	 M299.8,109.7c-0.1,1.5-0.2,2-2.4,2.2c0-0.1,0-0.2,0.1-0.3l0.7-1.1C299.2,109.7,299.1,109.9,299.8,109.7L299.8,109.7z M231,153.5
	c0.8-0.7,1.3-1.4,2-1.6c1-0.2,1.4,0.4,1.3,1.3C234.2,156,232.3,154.7,231,153.5L231,153.5z M213.3,160c1,1.6,0.6,2.1,1.6,3.7
	c0.8,1.1,1.6,2.3,2.3,3.4c2.3,3.5,3.1,4.1,6,7.2c-1.5-0.3-2.7-1.4-3.8-2.5c-1.5-1.6-5.9-7.5-6.5-9.5
	C212.3,159.8,212.4,161.4,213.3,160L213.3,160z M275.9,100.7c-1.2,1.4-0.6,0.9-1.2,1.8c-0.3,0.5-0.4,0.7-0.7,1.2
	c1,0.9,0.4,0.1,1.6,1.2c0.4,0.3,0.8,0.8,1.2,1.1c0.2-1-0.6-1.6,0.9-2.4c0,0,1.2-0.7,1.2,1.5c0,0-0.3,1.1-0.3,1.2l2.4,1.4
	c0.2-0.2,0.9-0.8,1.1-0.9c0.6-0.4,0.4-0.2,0.9-0.4l0.4,2.4c1-1.4,0.5-0.6,0.5-2.2c-0.8-0.6-1.8-1.3-2.7-1.7c-1.2-0.6,0,0.2-1.4-0.7
	c-0.7-0.4-0.6-0.4-1.5-0.9c0-0.1,0.1-0.3,0.1-0.4l0.4-1.2L275.9,100.7L275.9,100.7z"/>
<path class="st1" d="M523,117.7h0.1H523L523,117.7L523,117.7z M507.2,108.9l-36.6,0.1l0-0.2c0-0.1,0.1-0.2,0.1-0.3l0.1-0.3
	c0,0,0-0.1,0-0.2c0.5-2,0.2-5,1.6-7.2c0.9-0.1,2.5-0.5,3.4-0.3c1.2,0.3,2.3,0.6,3.3,0c2.3-1.5,4-1.2,6.8-1.3c1,0,1.4,0.2,2.1,0.2
	c1.5,0.1,2.4,0,3.9,0.5c2.7,0.8,3.2-0.1,5.2-0.2c1.2,0,1.7,0.1,2.6,0.7c0.9,0.6,0.2,0.4,1.3,1.1l4.3,3.1c0.3,0.4,0.3,0.4,0.6,0.6
	C507.1,106.2,507.5,107.3,507.2,108.9L507.2,108.9z M422.3,169.8c1.7-1.5,3.1-3.5,3.5-5.7l5.2-24l-7.3,0c-0.1-0.3-0.2-0.7-0.3-1.2
	c-0.6-1.8-0.4-1.7-0.5-2.2c-0.3-0.8-0.4,0.1-0.5-2.2c0-0.7,0-1.1-0.3-1.5c-0.5-0.6-0.1-0.2-0.5-0.4c0,1.8,0.5,3.2,0.6,4.8
	c0.2,2.5,0.7,1.9,0.8,2.7l-7.2,0l5-22.2l15.1,0l30.8-0.1c-0.5,0.7-0.9,1.1-1.1,1.7c0.9-0.1,0.6-0.2,1.2-0.7c0.2-0.2,0.4-0.5,0.7-1
	l47-0.1l0.8,0c0.9,0.6,1.6,0.5,2.7,1c0.5,0.2,0.8,0.8,1.3,1.2c0.6,0.5,1.8,1.6,2.5,2.5l-11.7,44.2c-4.1,15.4-20.1,28.1-35.5,28.2
	l-1.6,0l0-0.1c-0.2,0-0.4,0.1-0.5,0.1l-38.8,0.1c-0.4-0.2-0.2-0.1-0.1,0h0l0,0l-0.3-1.2c-0.1-1.4,0.9-3.1,1.8-4.1l0.7-0.8
	c0.4-0.6,0.6-1.2,1.2-1.6l1.7-1.3c0.7-0.6,3.2-1.6,4.3-1.5c0.7,0.1,1.3,0.2,1.9-0.4c0,0,0.1-0.1,0.1-0.1c0.3-0.2,2.4-0.2,2.8-0.3
	c3-1.2,3.8-1,5-4c0.5-1.3,0.1-2.5,1.1-3.4l0.4-0.3c0.2-0.2,0.2-0.2,0.5-0.4c1.1-0.8,2.5-0.8,3.5-1.9l0.3-0.4
	c3.1,0.4,6.7,0.6,9.8,0.1c0.7-0.1,2.3-0.4,2.7-0.9l-1.4-0.2c-0.6,0-1.2,0-1.8,0.1c-1.8,0.3-4.6-0.1-6.5-0.5
	c-0.7-0.1-0.8-0.3-1.5-0.3c-0.7,0-1.2,0-1.9,0c-1.3,2.1-3.7,0.9-5.2,4.7l-0.4,0.9c0,0-0.1,0.1-0.1,0.1c-0.6,0.9-1.2,2.4-2.2,2.6
	c-0.9,0.2-0.7-0.1-1.5,0.4c-2.7,1.5-0.9-0.2-3.8,1.4c-0.1,0-0.7,0.3-0.7,0.3c-0.5,0.1-1.9-0.4-3.2,0.4c-0.6,0.3-0.6,0.4-1.3,0.8
	c-1.2,0.6-3.3,2-3.8,2.9c-0.4,0.8-1.2,1.1-1.8,1.8c-1.1,1.1-2.5,4-2.4,5.7c0,0.5,0.1,1,0.3,1.5l-13.2,0c0.3-0.8,0.5-1.7,1.1-2.4
	l0.8-1c2.5-2.8,1-3.7,2.3-6.3c0.3-0.6,0.2-0.1,0.3-0.8c0.3-3-0.2-4.3-0.4-7.1c-0.1-1.2,0-2.6-0.2-3.5
	C422.2,171.8,422.2,170.8,422.3,169.8L422.3,169.8z M349.3,69.6l3.9,0c0.1,0.1,0.1,0.1,0.2,0.2c0-0.1,0-0.1,0.1-0.2l56.4-0.1
	c-0.9,0.2-2.8,0-4.4,0.2c-1.7,0.2-3.2,0.1-4.4-0.1c-3.7,3.3-1,4.4-4,7.6c-1.3,1.4-2,2.2-3.6,2.9c-2.5,1.2-3.5,6.6-9.5,10.3
	c-3.2,2-5-0.4-7.8-0.3c0.2,0.8-0.5-0.1,0.4,0.8c1.6,1.6,5.4,1.6,7.1,2.8c1.5,1.1,4.3,3.6,5.4,5.3c0.6,1,0.7,1.5,1.7,1.7
	c-1.5-5-4.8-4.1-4.9-8.4c3.4-3.1,3.5-2.4,6.6-6.9c1-1.5,0.7-1.6,1.5-3c2-1,1.8-0.1,3.7-2.2c6-6.7,0-8.2,9-8.1l5.6,0
	c3.9,0.4,3.8,3.3,7.3,4.6l-6.4-6.3c0.1-0.3,0.1-0.7,0.2-1l94.8-0.2c15.4,0,24.7,12.6,20.6,28l-3.1,11.6l-14.2,0
	c-0.3-0.6-0.7-0.8-1.2-1.2c0.1-1.3,0.5-1.6,0.7-2.9c0.2-1.4,1-2.9-0.3-4.1c0,0-0.1-0.1-0.1-0.1c-0.7-0.6-1.5-0.5-2.2-1.1
	c-0.9-0.7-2.1-1.2-3-1.9c-2.6-2.3-5-0.5-8.1-0.4c-3.3,0-6.3-0.3-9.8-0.1c-0.9,0-1.6,0-2.5,0.1c-1.3,0-0.9,0.3-1.9,0.6
	c-1.2,0.3-0.9,0-2,0.5l-1.4,0.8c-0.1,0-0.1,0.1-0.1,0.1c-1.6,0.1-2-0.2-3.2-0.3c-1.2-0.1-3.5,1.7-4.9-0.9c0,0,0-0.1-0.1-0.1
	c-0.5-1-0.9-0.6-1.7-1.4c-0.7-0.7-0.8-1.3-1.3-2.1c-1-1.7-1.6-2.4-3.5-3.2c-0.8-0.3-0.4-0.3-0.8-0.9c-0.5-0.8-0.9-0.3-1-0.2
	c0.3,1,0.9,0.9,1.2,2c0.3,0,0.7,0,0.9,0.1l2,2.1c0.6,0.9,0.9,2,1.6,2.9l3.1,2.8c0,0,0.1,0.1,0.1,0.1c0.2,0.6-1.3,4-1.4,5.1
	c-0.2,1.2,0.2,1.9-0.3,3c-0.1,0.2-0.3,0.7-0.4,1l-31.7,0.1l1.9-8.6c1-4.5-1.9-8.2-6.4-8.2l-24.8,0.1c-4.5,0-9.1,3.7-10,8.3
	l-13.9,63.7c-1,4.5,1.9,8.2,6.4,8.2l24.8-0.1c1.9,0,3.9-0.7,5.5-1.8c0,1.2,0.2,2.3,0.4,3.9c0.3,2.9,1.3,6.7,0.7,9.5
	c-0.1,0.6-0.1,0.8-0.4,1.4c-1,2-0.3,3.6-2,5.5l-1.6,1.7c-0.6,0.6-1,1.5-1.4,2.3l-0.1,0.1l-16.6,0c-0.9-0.5-1.7-1.1-2.2-1.7l-1.4-1.4
	c-0.5-0.9-0.3-0.3-0.8-0.9c-0.6-0.7-0.1-0.9-0.9-1.8c-0.3-0.3-0.1-0.1-0.4-0.5c-0.3-0.4-2.7-2.2-3.3-3.9c-0.3-0.7-0.4-1.2-0.9-1.8
	c0,0-0.1-0.1-0.1-0.1c0,0-0.1-0.1-0.1-0.1c-0.9-0.9-2.2-2.2-2.8-3.3c-0.2-0.4-0.1-0.8-0.3-1.3c-1.1-2.9-0.5-2.5-0.8-4.2
	c-0.1-0.4-0.1-0.2-0.2-0.4c-1,1-0.1,5.1-0.1,6.7c-1.1,0-2.4,0-2.7,1c0.5,0,1.5-0.1,1.8,0c0.4,0.1,0.6,0.4,1.3,0.6
	c0.1,0.6,0.1,0.7,0.4,1.1l1.4,1.9c0,0,0,0.1,0.1,0.1l0.8,1.8c0,0,0.1,0.1,0.1,0.1l0.7,1.1c0.4,0.5,0.4,0.5,0.7,1l0.2,0.4
	c0,0,0,0.1,0.1,0.1c0.6,1.2,1.6,2.3,2.1,3.4c0.7,1.3,0.8,1.5,1.2,2.1l-78.2,0.2c-15.4,0-24.7-12.6-20.6-28l5.7-21.6
	c2.4,1.9,4.4,3.6,5,4.4c1.9,2.2,1.1,3.3,2.9,5.4c2.9,3.6,9.7,13.4,13.7,14.2c-0.2-0.7,0.1-0.1-0.6-0.8c-1.5-1.5-0.6-0.1-2.2-2.7
	c-1-1.5-2.1-2.3-3.3-3.7c-1.2-1.4-6.5-9.6-7.1-11.3c-1.6-4.5-5.1-6-7.8-7.7l12.1-45.7c3.1-11.8,13.2-22,24.7-26.1
	c0.4,0.1,0.9,0.2,1.4,0.3c-0.2-0.2-0.3-0.4-0.5-0.6C342.6,70.2,346,69.6,349.3,69.6L349.3,69.6z M349.6,117.7
	c-0.2,0.1-0.2-0.1-0.4-0.2c1.7-1.6,2.1-1.5,3.8,0c1.6-1.1,0.2-1.2,2.6-1.9l-1.3,1.8c-0.5,0.6-0.5,0.7-1,1.3L349.6,117.7L349.6,117.7
	z M366.1,93.4c0.1-1.1-0.1-2.2,1.3-3.4c3-2.7,5.1,1.5,3.4,3.6c-1.1,1.4-2.8,1.4-2.8,1.4c-0.1,0.1-0.2,0-0.4,0L366.1,93.4L366.1,93.4
	z M348.3,116c-0.2,0.6,1.5,0.1-0.9,1.2c0,0-1.4,0.4-1.5,0.4c-1.1,0.4-1.9,0.7-2.9,1.3l-5.3,2.8c-0.7,0.3-1.6,0.3-2.8,0.7
	c-2.2,0.7-6.6-0.8-6.7-0.8c-1.4-1.1-0.5-0.8-0.6-1.1c1.5,0.8,3.2,0.7,5.3,1C338.7,121.8,342.5,115,348.3,116L348.3,116z
	 M310.5,110.9c0.7,0.5,2.4-3,4.9-2.8c7.9,0.5,4.7-1.5,9-1.5l4,0.6c0.1,0,0.4,0,0.3,0c0,0.1,0.2,0,0.3,0c-1.4,1.3-1.2,1.3-2.7,1.3
	c-4.6-0.1-3.3,0.7-7,1.7c-1.5,0.4-1.2-0.1-2.6,0.1c-1.4,0.3-0.4,0.2-1.7,1.4C312.7,113.8,312.3,112.1,310.5,110.9L310.5,110.9z
	 M461.9,72.3c-0.2,0.9,0,0.4,0.1,0.5c0.5-0.5,0.7-0.3,0.2-1.1C462.1,71.9,462,71.9,461.9,72.3L461.9,72.3z M509.7,164
	c-0.4-0.7-1.7-1.2-2.4-0.8C507.8,163.7,508.2,164,509.7,164L509.7,164z M473.7,161.2c0.1-0.2,0.3,0.4,0.2-0.6
	c-0.1-0.6-0.7-0.5-0.6-1.2l-1,0C472.9,160.5,473.1,161,473.7,161.2L473.7,161.2z M480.8,164.3c0.1-1.6-3.7-2.1-5-2.1
	c0.7,1.2,0.8,0.1,2.5,0.8l1.4,0.9C480.1,164.3,480,164.4,480.8,164.3L480.8,164.3z M523.2,186.7c-0.8,1.5-0.7,1.1-0.7,2
	c1.1,0,0.6,0.1,1-0.5c1.6-2.6-0.2-0.1,1.2-1.5c0.4-0.4,0.3-0.4,0.3-1c-0.6,0-0.8,0-1.2,0.3C523.6,186.2,523.3,186.5,523.2,186.7
	L523.2,186.7z M514.7,137.3c1.6,0.1,2.9,0.2,3.1-1.1c0.1-0.5,0-0.5-0.2-0.8l-1.3-0.8c-0.3,0-0.7,0-1,0
	C514.9,135.3,514.6,136.1,514.7,137.3L514.7,137.3z M486.7,187.3c-0.4,2.9-1.3,1.2-1.5,3.5c0.6,0,0.3,0.1,0.8-0.2
	c0.6-0.3,1.3-2.1,1.5-2.9c0.3-1.4,1.2-2.4,0.9-4l-0.8-0.3C487.2,184.5,486.9,186.2,486.7,187.3L486.7,187.3z M473.5,145.7
	c-0.3,1.5-1.2,2,0,2.3l0.4-1.6c0.4-1.4,0.6-5.5,1.1-8.1c0.1-0.4,0.2-1.1,0.1-1.7c-0.1-0.7-0.4-0.8-0.8-1.1c0,1.5,0.1,2.1-0.2,3.5
	C473.4,142.4,473.8,144,473.5,145.7L473.5,145.7z M474.4,193.1l-0.5,0.7c0.2,0.2-0.1,0.5,0.9,0l0.4-0.2c1.3-0.8,1.6-1.3,3.3-0.6
	c0.4,0.2-0.1-0.1,0.5,0.3c2,1.5,4.1-0.4,4.5-0.4c0.8-0.1,0.5,0.2,1.4,0.1l0-1.5c-1.8-0.1-1.7,0.4-2.1,0.5c-0.6,0.2-1.9,0.1-2.6,0
	c0,0-1.7-1.6-3.5-0.3C475.5,192.3,475.4,192.2,474.4,193.1L474.4,193.1z M496.9,145.3c0.2-1.5-0.2-0.9-0.7-2l-2.1-10.9
	c-0.4-3,0.5-3.5-0.1-4.6c-0.6,0.4-0.3,0.1-0.4,1c-0.3,2.3-0.3,0.7-0.3,3.8c0,4.7,0.7,4.2,1,7c0.2,1.7,0.1,2.9,1.1,4.3
	c0.6,0.8,0.4,0.6,0.7,1.7L496.9,145.3L496.9,145.3z M483.9,165c-1-0.6-0.8-1.4-2.3-1.4l0.2,1c0.6,1.3,0.9,1.3,1.1,3.5
	c0.2,3.8-0.3,6.5,1.9,9.9c0.5,0.7,0.1,0,0.4,1c0.5,1.7,0.6,2.4,1.6,3.1c0.2-4.2-1.9-6.2-1.2-11.4c0.4-2.9-1.2-3.7,1-5.2
	c1.4-0.9,0.8-1.6,2.7-2.1c1.6-0.4,3.3-0.5,4-2c0.1-0.2,0.2-0.5,0.3-0.7c0-0.1,0.2-0.5,0.2-0.5c0.1-0.2,0.1-0.3,0.2-0.5
	c0.1-0.3,0.2-0.5,0.5-0.8c0-0.1,0.2-0.2,0.3-0.3c0.5-0.6,0.7-1,1.4-0.5l1.5,0.8c0.5,0.2,1.7,0.5,2.4,0.7c0.9,0.3,1.7,0.4,2.5,0.7
	c0.3,0.1,0.5,0.4,1,0.5c0.2,0.1,0.5,0.1,0.8,0.1c0.7-0.2,0.1,0,0.5-0.4c-3-0.9-0.5-0.4-3-1.3c-1.2-0.4,1.2,0-2.9-0.9
	c-1.8-0.4-1.1-0.5-2.1-1c-0.5-0.3,0.7,0.4-0.3-0.1c-1.3-0.7-0.7-1.8-1.3-3.3c-0.2-0.6,0-0.1-0.2-0.6c-0.7-1.5-0.3-1.8-0.4-4.1
	c-0.4,0.3-0.3,0.2-0.6,0.6c-0.3,0.4-0.2,1.2-0.3,1.6c0,2.4,1.5,3.9,0.2,6.3c-0.3,0.6,0,0.1-0.3,0.4c-1.6,1.7-0.7,1.4-1.4,2.9
	c-0.7,1.5-3.2,1-4,1.1C487.3,162.2,485,164.7,483.9,165L483.9,165z"/>
<path class="st2" d="M588.5,143.7c-0.5-0.2-0.2-0.1-0.9-0.2c0.1,1.5,0.2,0.9,0.5,1.1C588.8,144,588.4,144.8,588.5,143.7L588.5,143.7
	z M592.8,132.4c-0.2-1.1-0.4-1.3-1.6-1.4C591.3,132.2,591.6,132.4,592.8,132.4L592.8,132.4z M710.7,106.6c0,0-0.1,0.1-0.1,0.1
	c-0.1,0-0.1,0.1-0.1,0.1c0.3,0.5,0.1,0.7,1.7,0.1c1-0.4,1,0.1,1.2-0.8c-0.1,0,0.1-0.3-0.7-0.1L710.7,106.6L710.7,106.6z
	 M680.3,139.4c0-1-0.1-1.5-0.9-1.7c-1.1-0.3-1.3,0.2-1.3,1.2C678.6,139.5,679.3,139.7,680.3,139.4L680.3,139.4z M629.3,75.1
	c-0.3,0.9-0.1,1.2-0.7,2.2c-0.5,0.9-1,0.7-1.1,1.3c0,0.5-0.1,0.1,0.2,0.3c0,0,1.1-0.1,1.2-0.1c1.3-0.4,1.5-1.7,1.5-2.7
	c1.4-0.2,2.4,0.4,3.1-0.5c-0.2-0.2,0-0.3-1-0.2C630.6,75.3,630.2,75,629.3,75.1L629.3,75.1z M659.4,86.2c0.5,0,2.7-0.3,3-0.4
	c0.9-0.4,0.9-1,1.1-1.9c-0.8-1.2-0.8-2.1-2.4-2.6c-1.1-0.4-3.3,0.3-4,0.6c0.2,2,0,2,0.7,2.9C658.6,85.8,658.3,85.2,659.4,86.2
	L659.4,86.2z M609.2,92.5c0.5-0.3,0.3,0,0.6-0.4c0.4-0.6,0.3-1.1,1.5-2.4l1.3-1.4c0.6-0.7,1.2-1.5,1.9-1.8c3.5-1.8,1.1-1.4,3.9-1.5
	c0.9,0,5-1.2,5.7-1.5l1.3-0.7c1.3-1.1,2.5-1,2.7-2.3c-0.3-0.2-0.5-0.7-1.5,0.1c-1.1,0.9-2.6,1.1-4,1.8l-3,1
	c-0.8,0.3-0.7,0.5-1.4,0.6c-0.6,0.1-1.3,0-1.9,0.2c-1.2,0.3-0.1,0.5-2.3,1.5c-1.3,0.6-1.2,0.3-2.2,1.8c-0.2,0.3-0.2,0.3-0.4,0.7
	l-1.9,2.9C609.3,91.4,609.2,91.6,609.2,92.5L609.2,92.5z M671.4,66.5l5,0l12.1,0c5.7,0,10.8,1.3,15.1,3.6c-0.1,0.1-0.3,0.1-0.5,0.3
	c-0.4,0.4-0.4,0.6-0.7,0.9l-1.9,1.7c-0.7,1-2.2,1.7-3.4,1.1l-0.3-0.1c0,0-0.1-0.1-0.1-0.1c-1-0.7-1.1-0.8-2.3-1.3
	c-0.3-0.1-0.9-0.4-1.3-0.5c-0.5-0.1-2.6-0.2-3.3-0.3c-3.5-0.4-3.3,2-5.4,0.6c-1.1-0.7-1.5-0.4-2.8-0.7c-0.6-0.1-0.6-0.2-1.5-0.3
	c-0.6-0.1-0.8-0.1-1.4-0.3c-0.1,0-0.8-0.2-0.8-0.2l-2.4,0c-1.3,0.3-1.5,0.6-3,0.6c-0.4-0.5-1.2-1.5-1.4-2.3
	C671.1,68.5,671.3,67.5,671.4,66.5L671.4,66.5z M555.7,171.6c-0.6-0.1-0.3,0-0.6-0.4c-0.3-0.4,0.1-0.1-0.4-0.6
	c-0.6-0.6-0.6-0.4-0.3-1.2c1,0.2,0.5,0.3,1,0.9c0.3,0.4,0.4,0.2,0.5,0.8C556,171.9,555.8,171.5,555.7,171.6L555.7,171.6z
	 M557.2,171.1l0-1.2c1.1,0.1,0.8,0.2,0.9,1.4L557.2,171.1L557.2,171.1z M585.2,146.6c-0.6,0.3-1.2,0.4-2.3,0.4l0-0.6
	c0.5-0.3,0.1-0.1,1,0l0.2-1l0.9,0.1C585.1,145.8,585.2,146.1,585.2,146.6L585.2,146.6z M582.3,142.9c0.1-1.4,0.6-1.1,0.6-2.9
	c0.9,0.3,0,0.3,2,0.6c0.5-0.7,0.1-0.2,0.6-0.5l0.2,0.8c1.1-0.1,0.1-0.3,1.5-0.4c-0.1,1.1-0.5,1-1.2,1.4l0,1.6
	c-0.9,0.3-0.8,0.3-1.9,0.2c-0.3-0.4-0.2-0.4-0.3-0.8H582.3L582.3,142.9z M586.4,137.5c-0.5,0.5-1.1,1-2.7,0.4c0-0.6,0.2-1,0.5-1.6
	c1.2-2.8,0.1-0.9,2.9-1.8c0,1,0.1,1.7-0.4,2.6c0,0-0.1,0.1-0.1,0.1L586.4,137.5L586.4,137.5z M585.8,139.4c-0.6-0.9-0.1-0.8,0-0.9
	C586.4,139.4,585.8,139.3,585.8,139.4L585.8,139.4z M586.7,133.6c-0.6-0.1-1.2-0.3-1.4-0.9c0.8-1,1.6,0.1,1.6,0.2
	C587.2,133.8,586.8,133.5,586.7,133.6L586.7,133.6z M595.7,148.8c-0.2-0.2-0.4,0.5-0.5-0.6c-0.1-0.9,0.2-0.6,0.2-0.6
	C596,147.9,596.2,147.8,595.7,148.8L595.7,148.8z M567.1,183.8l-3,11l-49,0.1l8.1-30.7l5.8-21.7c0.3,0.2,0.5,0.2,1.5,0.7
	c0.8,0.4,2.1,1.6,2.8,1.7c3.4,0.5,1.4-0.5,3.5,1.1c1.5,1.1,3.2,1.7,4.8,2.6l0.9,0.6c0.1,1.3-0.1,1.6-0.7,2.5l-1,2.3l1.2,0.2l0.1-1.4
	c0.5-0.1,0.3-0.1,0.7-0.8c0.8-1.5,0.7-1.9,0.8-3.9c0.7-0.1,0.8,0,1.3,0.3l1,0.7c0.7,0.5,1.7,2,2.4,2.6c1.3,1,1.3,1.9,1.4,3.7
	c0.1,6-0.4,4.2-0.6,6.2c-0.2,2.2,0.6,2.5,0.7,6c0,1.4,0.8,3.5-0.2,4.7c-0.3,0.4-0.5,0.5-0.9,0.8c-0.2,0.2-0.2,0.2-0.5,0.3l-0.6,0.3
	c-0.2,0.1-0.4,0.2-0.6,0.3c-0.8,0.5-1.7,1.1-2.2,1.9c-2.9,0-6,0-8.6,0.7c-1.4,0.4-3.5,0-4.7,1.1c-0.3,0.3,0,0-0.3,0.4
	c0.2,1,0.6,1,0.4,2.4c-0.7,5.2-1.3,3.9-2.7,6l-3,0c0.2,0.1,0.4,0.2,0.6,0.3c2.7,1.5,2.1,0.6,3.2-0.2c1.6-1.1,1.2-0.3,1.9-2.3
	c0.6-1.6,0.8-3.3,1-5c1.7-1.1,0.6-0.9,3.1-1.1l2.3-0.5c0.3-0.1,0.3-0.3,0.6-0.4l8.1-0.5c0,0,1-1.1,2-1.6c3-1.3,2.3-2.8,3.8-1.9
	c0.8,0.5,1.5,0.4,2.1,1c3.3,3.4,1.3,3.5,2.8,5.2c0.6,0.7,2,1.9,1.1,2.9c-1,1.1-1.3,2.2-3.2,2.2l0.1-1.6c-1.5,0.2-0.9,2.4-0.5,3.1
	l0.6,1c0,0,0,0.1,0.1,0.1c0,0,0.1,0.1,0.1,0.1c0.3,0.6,0.4,0.7,0.5,1.5c0.4,2.2,1.2,2.1,2.5,3.4c0.6,0.6,0.7,0.7,1.6,0.7
	c-0.1-1-1.1-1.9-1.5-3.4c-0.5-1.6,0.1-2.2-1.2-3.7l0.3-1.4c1,0.1,2-0.4,2.8-1.1c1.5-1.4,1.1-0.9,2.6-0.7
	C564.6,183,565.9,183.4,567.1,183.8L567.1,183.8z M697.2,167.2c1.2,5.1,1.1,10.8-0.5,16.8l-3,11.3l-42.9,0.1l0.1-0.5
	c3.5-17.2,5.2-30.9-16.2-30.9l-13.5,0l-48.9,0.1l-4.4,16.3c-0.4-0.2-0.8-0.4-1.2-0.6c-0.4-0.2-0.7-0.2-1.1-0.4
	c-0.6-0.3-0.4-0.7-1.3-1c-0.4-0.2-1-0.1-1.4-0.4l-0.8-1.2c-0.4-1.1-0.8-1.1-0.5-2.6c0.4-1.7,0.8-1.9,0.2-3.4c-0.4-1-0.3-2.1-1.3-2.7
	c-2.4-1.7-1.1-2.2-0.7-3.9l0.3-1.6c0.2-0.8,0.2-0.7,0.1-1.6c-2,0.1,0.3,0.5-1.2,0.5c-0.1-0.1-0.7-0.3,0.3-1.7l0.6-0.5
	c0-0.8-0.3-1.8-0.7-2.1c-1.4,0.3,0.1,0.4-1.1,1c-0.4,0.2-0.2-0.1-0.8,0.2c-0.4,0.2-0.2,0.2-0.4,0.5l0.2,0.3c0.4,0.7,0,1.5,0,2.4
	c-0.7-0.1,0.1,0-0.6-0.2l-2.2-0.9c0-0.5,0-1.2,0-1.7c-0.1-1.5-0.6-1.6,1-2.3l0.9-0.7c0,0,0.1-0.1,0.1-0.1c0-0.6-0.2-1.9,0.2-2.2
	c0.9-0.5,0.9,0.4,1.4-1.1c0.9,0,1.4-0.1,2-0.7c1-1,0.1-1.6,1.1-2.2c0.3-0.2,0-0.1,0.5-0.2c0.9-0.1,1.1,0.2,1.8-0.5
	c0.8-0.9,2,0.2,1.7,0.3c-0.5,0.2,5.3,1.1,6.1,1.2c1.2,0.1,2,0.1,3.3,0.1c0.7,0,1.1,0.1,1.8-0.1c1.9-0.6,1,0.2,2.5,0.7
	c0.9,0.3,11,0.3,12.6,0.3c0.2,0.3,0.3,0.4,0.6,0.7l1.9,2.4l1.6-2.4c0,0,0.1-0.1,0.1-0.1l3.4-5c0.3-0.4,0,0,0.3-0.3
	c0.8-0.8,1.4-2,1.5-3.2l1.3-0.5c0-0.7,0.2-1.2,0.4-1.7l2.2,0.3c0,0-0.5-0.3,0.1,0.4l0.3,0.2c0.9,0.6,1.4,0.9,2,1.7
	c0.8,1,1.1,1.8,1.6,2.7l1.3,1.5c0.3,3.1-0.5,2-0.7,4.2c0.4,0.9,0.9,1.5,1.4,2.5c0.4,1,0.7,2.4,0.7,2.4l0.1,0.3
	c0.6,0.7,2.7,0.9,3.5,1.1c1.2,0.2,1.4,0.4,1.4-0.8c0.1-2.9-0.8-4.9-0.7-5.8l0.2-4.2c0.7-0.4,1.2-0.8,2-1l0.2,0.4
	c0.3,0.7-0.5,0.5,0.9,0.6c0.2-0.3,0.4,0.5,0.2-0.7c-0.1-0.7-0.4-0.3-0.7-1c-0.1-0.1-0.1-0.4-0.2-0.6c1,0,0.9-0.2,1.6-0.2
	c0.4,0.5,0.5,0.8,1.4,0.8l0,1.4c1.9,0,0.9-0.2,2.5-0.7l1.3-0.4c1.5-0.3,1.3-0.9,2.8-0.6l4.7,0.7c0.3,0,0.5,0,0.8-0.1
	c0.1,0,0.1,0,0.2,0l3.1-1.1c1.3-1,1-0.6,2.5-1.1l1.4-0.4c0.4-0.1,0.7-0.5,1-0.7c0.8-0.4,5.4-0.3,6.4,0.2l1.3,0.5
	c0.5,0.2,1.4,0.4,1.8,0.8l1.1,1c1.2,1,0.8,0.8,2.7,1.1c1.9,0.2,2.6,0.4,3.6,1.7c0.5,0.7,0.4,0.2,0.9,0.8c0.5,0.6,0.8,1.4,1.5,2
	c0.4,0.4,0.6,0.4,1,0.7l0.3,0.2c0,0,0.1,0.1,0.1,0.1c0,0,0.1,0.1,0.1,0.1c1,0.9,1.8,0.1,2.4-0.3c0.6-0.4,1.4-0.5,2.1-0.6
	c1.6-0.3,2.2,0.1,3.5,0.3c0.7,0.1,0.3,0.1,1,0.3c1.5,0.4,3.2-0.2,4.8-0.2c1.2,0.1,1.5,0.3,2.3,0.4c2.9,0.4,3.3,1.1,5.7,2.2
	c0.8,0.4,1.1,0.1,2,0.7c2.2,1.7,0.8,1.7,3.3,4.5c1,1.2,0.9,2.3,2.4,2.9c-0.1,0.7,0.3,1.6,0.6,2.2c0.2,0.3,1,1,1.4,1.3
	c0.7,0.5,0.3,0,0.8,0.6c0.8,0.8,1.1,0.6,2.1,0.9C697.1,167.1,697.1,167.2,697.2,167.2L697.2,167.2z M650.8,128.8l2.6,0
	c2.7,0,5.4-0.8,7.7-2.3l-0.3,0.6c-0.4,0.9-1.5,1.8-2.3,2.4c-0.2,0.2-0.2,0-0.5,0.4c-0.3,0.4-0.4,0.8-0.4,1.4l3-1.2
	c0.9-0.4,1.3,0,2.3-1.4c1.6-2.4,1.3-1.4,2.6-3.2c0.8-1.1,2.1-1.5,2.6-3.2c0.3-1.1,0.5-1.7,1-2.7c0.8-1.7,0.3-1.9,1.8-2.1
	c0.6-0.1,1.3,0,1.9,0c0.7,0,0.9-0.3,1.4-0.5c0.5-0.1,1.9,1.1,5.2,1c4.4-0.1,3.6,0.6,4.9,1.2c0.9,0.4,1.5,0.5,2.7,0.5
	c0.8,0,0.7,0,1.3,0.2l4.5,0.1c1.2-0.2,1.2-0.8,1.9-1.1c1.8-0.6,3.1,1,5.4,0c0.9-0.4,1.2-0.7,2.2-1c0.8-0.2,1.3-0.4,2.2-0.6
	c0.9-0.2,1.7-0.3,2.5-0.7c1.4-0.6,1.1-0.1,1.8-1.3c0.8-1.4,0.8-1.2,1.4-1.7c0.8-0.6,0.5-1.9,0.2-2.3l-0.4,0.7
	c-0.1,0.3-0.1,0.4-0.2,0.7l-1.9,1.6c-0.5,0.4-0.5,0.6-0.9,0.8l-2.6,1c-0.5,0.1-0.9,0.2-1.3,0.4c-2.2,0.8-3.1,0.6-4.1,1.1
	c-3.4,1.8-4.2-1-7,0.4c-0.2,0.1-0.4,0.3-0.5,0.3c-1,0.7-4.9,0.1-5.9-0.2c-2.4-0.7-2.9,0.1-3.5-1.7c-0.1-0.4-0.1-0.5-0.6-0.6
	c-1.5-0.3-4.5,0-6.4-1c-2.4-1.3-1.4-0.6-3.1-0.4c-0.6,0.1-2.3,0-3.4,0l1-3.7c1.5-5.8-1.5-10.6-6.9-11.3l-20.3,0l-38.9,0.1l-14.4,0
	l-5.9,20.8c0,0-0.1-0.1-0.1-0.1l-0.4-0.3c-0.3-0.2-0.2-0.1-0.5-0.3c-0.3-0.2-0.5-0.3-1-0.4c-1.5-0.4-0.9-0.7-1.7-1.3
	c-1.1-0.8-0.9,0.1-1.7-1.5c-1-1.8-1-1.4-2-3.4c0,0-0.1-0.1-0.1-0.1l-0.2-0.2c-0.5-0.7-0.7-2.3-2.1-4c-1.1-1.3-2.4-2.5-1.9-4l0.7-2.4
	c0.3-1.2,0.4,0.2,0.6-2.5c0.1-0.9,0.5-1.3,0.5-2.3c0.1-5.9,0.6-2.2,0.9-5.2c0.3-3.2,1.3-4.5,0-9.1c-0.1-0.5-0.5-0.8-0.7-1.4
	c-0.3-0.7-0.2-0.7-0.4-1.5c-0.5-3.6-0.4-1.7-0.7-3.4c-0.2-1.1-0.3-0.6-0.4-1.6l-0.9-5.2c-0.3-2-0.1-2.5-0.1-3.5l83.7-0.2l15.4,0
	c-0.1,0.8-0.2,1.6-0.2,2.7c0,0.7,0.2,2.2,0,2.8c-0.1,0.6-1.9,2.9-2.2,3.7l-1.4,3.4c0,0-0.1,0.1-0.1,0.1c0,0.1-0.1,0.2-0.1,0.3
	c-0.1,0.4-0.1,0.1-0.1,0.5c1.2,0,0.9-0.2,1.3-0.7c0.5-0.6,0.9-1.1,1.2-1.9c0-0.1,0-0.1,0-0.2c0.2-0.7,1.9-2.9,2.7-3.2
	c1.1-0.3,1.8,0,3-0.6c0.8-0.4,2.1-0.5,3.1-0.2c2,0.6,4.3,0.3,6.3,1.1c0.9,0.4,1.4,1.2,2.8,0.4c0.5-0.3,0.5-0.6,1.2-0.6
	c0.4-0.1,1.4,0,1.9,0c0.7,0,3-0.1,3.5,0.1l2.5,1.3c0.7,0.5,0,0.4,1.1,0.8c1.4,0.5,1.1,0.9,3,0.6c0.7-0.1,0.7-0.4,1-0.9
	c0.3-0.5,0.1-0.1,0.5-0.5l2.3-2.1c0.7-0.6,1.6-0.4,2.3-2c9.6,6.5,14,18.7,10.3,32.7l-5.9,22.1c-2.3,8.6-13.6,16.6-27.9,23
	c7.1,3.2,12.1,9.1,14.3,16.6c-0.8-0.7-1.2-0.3-2-1.1c-1.1-1-1.3-1.3-1.7-2.5c-0.5-1.4-1.7-2.5-2.6-3.8l-1.2-1.9
	c-0.6-1.3,0-1-1.1-2.3l-1.9-1.2c-1.6-0.5-1.1-0.8-2.1-1.2l-2.2-0.9c-0.5-0.3-0.4-0.4-1.1-0.5l-4.1-0.6c-2.2,0-2.5,0.2-4.5-0.4
	c-1.7-0.4-2-0.8-3.8-0.1c-1,0.4-1.4,0.1-2.5,0.6c-1-0.8-1.7-0.9-2.4-1.9c-0.5-0.8-0.6-1.3-1.1-1.8c-0.9-0.8-1-1.7-2.2-2.2l-2.3-0.6
	c-1.2-0.2-1.9-1.6-3.3-2.5c-0.5-0.3-0.6-0.8-1-1.2c-0.5-0.5-0.3-1.7-0.8-2.4l-1.4-1.8c-0.9-1.2-0.8-1.6-0.9-3.3c0-0.5,0-1.2,0-1.7
	C650.6,129.8,650.7,129.3,650.8,128.8L650.8,128.8z M586.7,129l58.1-0.1l3.6,0c-0.3,1.7-0.4,3.6,0,5c0.3,0.8,0.9,1.1,1,2.4
	c0,0.5-0.5,1.7-0.8,2.4c-1.2,0.4-2.6,0-3.9,0c-0.7,0-1.4,0-1.9,0.2c-1.4,0.5,0.6,0.5-4.7,1.4c-1.2,0.2-0.6,0.4-1.3,0.7
	c-0.4,0.2-1,0.2-1.5,0.5c-0.6,0.3-0.5,0.5-1.5,0.5l-3.7-0.5c-0.6-0.1,0.1,0-0.4-0.2c-1-0.5-2.5,0-3.6,0.6c0,0-0.1,0.1-0.1,0.1
	c-1,0.6-2.2,0.4-2.8,1.3c-0.9,0-1.8,0.2-2.7,0.2c-1,0-1.2-0.3-2.1-0.3c-0.8,0.3-0.8,1.1-1,1.7c-0.2,0.5,0.1,0.2-0.4,0.4
	c-0.1-0.1-0.2-0.5,0-1l-0.6-0.2c-0.1-0.9-0.1-0.8-0.6-1.2c-0.7-0.7-1.2-1.8-2-1.8c-0.9-0.1-0.4,0.1-1.2,0.4c-0.4,0-3.8-0.8-4.2-1.1
	c-2.5-1.8-2.1-0.1-3.8-0.5c-0.9-0.2-0.7-0.6-1.5-0.5c-1.2,0.1-2.4,0.2-3.4,0.9c0.2,1.2,0.5,0.4,0.5,2.7c-2.2-0.1-1.4-1.1-2.8-1.2
	c0.6-0.4,0.6-0.5,0.4-1.2l-1.1-0.5c0,0-0.2-0.1-0.2-0.2c-0.5-0.4-0.6-0.6-1.6-0.6c-0.3,0.4,0-0.3-0.3,0.4c0,0.1-0.1,0.2-0.1,0.3
	c-0.1,0.3-0.1,0.4-0.1,0.8c0,1.1,0.2,0.3,0.5,1.3l-1.2,0.2l-0.1,1.9c-1.1-0.4,0,0-0.6-0.5c-0.8-0.6-1.2,0.1-1,1.1
	c-0.9,0.1-0.8,0.2-1.5,0.3c0-0.2,0-0.6,0-0.8c-0.1-0.4-0.1-0.2-0.2-0.4c-0.5,0.1-0.2-0.1-0.7,0.3c-0.3,0.3-0.1,0.2-0.4,0.5
	c0.1,0.8,0.2,1,0.2,2.2c1.1-0.2,0.4-0.1,0.7-0.3c0.2-0.1-0.1,0,0.4-0.1c1.4-0.3,1.1-0.9,2.7-0.4l0.2,0.8c-2.3,0.2-1.1,1.4-3.1,1.6
	c0,0,0-0.1-0.1-0.1c0,0,0-0.1-0.1-0.1c0,0-0.1-0.2-0.1-0.3c-0.2-0.4-0.1-0.2-0.2-0.4c-0.5,0-1.3,0.1-1.8,0.3
	c-1.2,0.4-0.5,1.1-2.1,0.4c0.7-2.1,0.3-2.8,0.8-3.6c0.3-0.5,0,0,0.6-0.5l0-1.2l1.2-0.3l0-2.3c0.6,0,2.1-0.2,2.7-0.3
	c0.7-0.1,0.3-0.2,1.1-0.4c0.4-0.1,1,0,1.4,0c0-1.5-0.8-2.1-0.9-3.5c-0.1-0.8,0.1-0.6-0.2-1.2c-1.9-0.3-1.1,0.3-2.6,0.3
	c-0.3-0.6-0.3-0.4-0.3-1.2c-0.5,0.1-0.6,0.2-1.2,0.2l0-1.3l-1.1-0.8c0,0-0.1,0-0.1,0l-0.2,0.1C586.9,130.7,586.9,129.8,586.7,129
	L586.7,129z M581.2,129l3.2,0c0,1.2-0.3,1.3-0.9,1.9c-0.1,1.1-0.3,2.4-0.6,3.3c-0.2,0.6-0.4,1.1-0.6,1.5l-0.7,1.1
	c-0.1,0.1-0.2,0.7-0.2,0.8l-1.5,5.3c-2.6,0.3-0.6-2.1-5.7-0.2l-7.3,3.2c-1.3,1-3.6-0.6-4.5,1c-0.6,1-0.3,0.7-1.4,1.2l-2.9,1
	c0,0-0.1,0-0.2,0.1l-4.8,1.3c-0.3,0.1-0.5,0.2-1,0.3c-0.6,0.1-0.9,0.1-1.4-0.6l-2.4-2.2c-0.5-0.5-0.9-1-1.3-1.4
	c-2.1-2-1.3-1-1.3-7.4c0-1.6,0.6-1.6,1.4-2.6c0.4-0.5,0.1-0.6,0.6-1.2c0.6-0.7,0.6,0,0.6-1.2c-1.2,0.2-0.5,0.2-1.2,1
	c-0.4,0.5-0.6,0.6-1,1.1c-0.9,1.2-1.1,0.2-1.8,2.5c-0.6,2.2-0.3,2-0.5,3.9c-0.1,0.8-0.3,0.8-0.4,1.9c-0.1,0.7,0,1.3-0.2,1.8
	c-1.1,0.2-1.8-0.1-2.7-0.6c0,0-0.1-0.1-0.1-0.1l-0.4-0.2c-1-0.5-2-0.8-3-1.4l-2.2-1.1c-0.8-0.3-0.5-0.5-1.5-0.5c-0.4,0-0.7,0.1-1,0
	c-1-0.1-1-0.4-1.4-0.7c-0.5-0.4-0.9-0.3-1.4-0.4l3-11.4l0.7,0.9c0.3-0.6,0.1-1.3-0.4-2.1l8.3-31.3l8.1-30.7l20.6-0.1
	c-0.1,0.9-0.3,1.8-0.2,2.5c0.1,0.5,0.3,0.6,0.3,1.3l0.3,4.8c0.1,1.3,0.2,1.9,0.4,3.1c0.1,0.7,0.1,2.5,0.3,3.1c0.2,0.5,1,1.4,1.2,2
	c0.5,1.5,0.7,5.2,0.5,6.5c-0.1,0.5-0.2,0.8-0.3,1.4c-0.2,3.3,0,0.8-0.7,2.6c-0.4,1-0.2,2.4-0.4,3.7c0,0.1,0,0.3-0.1,0.3
	c0,0.1,0,0.1,0,0.2c-0.5,2.5-0.2,2.7-1.2,5.6c-0.1,0.2-0.2,0.8-0.5,1.1c-0.3,0.3-2,0.8-2,3.1c1.5-0.7,0.6-1.8,2.1-2.4l0.3,0.2
	c0,0,0.1,0.1,0.1,0.1l2.9,3.4c1.2,2,1.4,2.8,2.2,4.3c0.6,1,1,1.3,1.8,2.6c1,1.7,1.7,2.4,3.4,3.3c1.9,1,2.6,1.9,3.1,2.6L581.2,129
	L581.2,129z M597.3,146.5c-0.3-0.4-0.2,0.6-0.2-0.7c0-0.9,0.1-0.4,0.2-0.5C597.7,145.8,597.6,145.9,597.3,146.5L597.3,146.5z"/>
</svg>
